# xmcd
#
# Track frame offsets: 
#        182
#        11442
#        25535
#        40245
#        66902
#        77960
#        96922
#        117455
#        136950
#        160035
#        207810
#        223812
#
# Disc length: 3250 seconds
#
# Revision: 9
# Processed by: cddbd v1.5.2PL0 Copyright (c) Steve Scherf et al.
# Submitted via: ExactAudioCopy v0.99pb3
#
DISCID=a00cb00c
DTITLE=Eric Clapton - Stages (comp) (1993)
DYEAR=1993
DGENRE=Blues
TTITLE0=Stepping Out (John Mayall's Bluesbreakers)
TTITLE1=Ramblin' On My Mind (John Mayall's Bluesbreakers)
TTITLE2=Hideaway (John Mayall's Bluesbreakers)
TTITLE3=Have You Heard (John Mayall's Bluesbreakers)
TTITLE4=Outside Woman Blues (Cream)
TTITLE5=Crossroads (Cream)
TTITLE6=They Call It Stormy Monday (John Mayall's Bluesbreakers)
TTITLE7=Well Alright (Blind Faith)
TTITLE8=Bell Bottom Blues (Derek and The Dominos)
TTITLE9=Blues Power (live) (Derek and The Dominos)
TTITLE10=Drifting Blues (Eric Clapton)
TTITLE11=Mean Old Frisco Blues (Eric Clapton)
EXTD=
EXTT0=
EXTT1=
EXTT2=
EXTT3=
EXTT4=
EXTT5=
EXTT6=
EXTT7=
EXTT8=
EXTT9=
EXTT10=
EXTT11=
PLAYORDER=
